<svg width="918.402" height="132.206" viewBox="0 0 918.402 132.206" xmlns="http://www.w3.org/2000/svg"><g id="svgGroup" stroke-linecap="round" fill-rule="evenodd" font-size="9pt" stroke="#000" stroke-width="0.25mm" fill="none" style="stroke:#000;stroke-width:0.25mm;fill:none"><path d="M 341.802 131.603 L 342.802 123.403 Q 350.202 122.003 352.802 119.303 A 7.639 7.639 0 0 0 354.361 116.794 Q 355.402 114.179 355.402 110.003 L 355.602 46.403 A 32.726 32.726 0 0 0 355.536 44.24 Q 355.323 41.041 354.423 39.732 A 3.037 3.037 0 0 0 354.402 39.703 A 3.382 3.382 0 0 0 352.997 38.586 Q 351.842 38.062 350.022 38.009 A 14.36 14.36 0 0 0 349.602 38.003 L 344.202 38.203 L 343.602 37.403 L 344.802 29.803 A 69.504 69.504 0 0 1 345.932 29.814 Q 347.585 29.841 350.441 29.937 A 698.01 698.01 0 0 1 352.302 30.003 Q 357.802 30.203 363.402 30.203 Q 368.002 30.203 374.402 29.603 A 5241.942 5241.942 0 0 0 376.991 29.359 Q 381.24 28.959 382.802 28.803 L 382.002 37.003 A 50.395 50.395 0 0 0 379.777 37.421 Q 377.616 37.882 376.233 38.427 A 8.957 8.957 0 0 0 375.202 38.903 A 5.548 5.548 0 0 0 372.524 42.231 A 7.2 7.2 0 0 0 372.502 42.303 A 14.45 14.45 0 0 0 372.171 43.659 Q 371.707 45.977 371.409 50.112 A 117.723 117.723 0 0 0 371.402 50.203 L 370.402 74.403 L 396.402 74.603 Q 407.002 74.603 419.402 73.203 L 419.602 46.403 A 32.726 32.726 0 0 0 419.536 44.24 Q 419.323 41.041 418.423 39.732 A 3.037 3.037 0 0 0 418.402 39.703 A 3.382 3.382 0 0 0 416.997 38.586 Q 415.842 38.062 414.022 38.009 A 14.36 14.36 0 0 0 413.602 38.003 L 408.002 38.203 L 407.602 37.403 L 408.802 29.803 A 24.784 24.784 0 0 0 409.833 29.891 Q 411.355 29.994 414.045 30.063 A 272.695 272.695 0 0 0 415.802 30.103 Q 421.002 30.203 426.002 30.203 Q 429.302 30.203 433.595 29.919 A 198.742 198.742 0 0 0 437.702 29.603 Q 444.602 29.003 446.802 28.803 L 446.202 37.003 A 43.12 43.12 0 0 0 443.526 37.427 Q 439.579 38.192 438.037 39.473 A 4.102 4.102 0 0 0 438.002 39.503 Q 436.002 41.203 435.802 45.803 Q 435.002 61.603 434.302 81.103 A 1676.944 1676.944 0 0 0 433.996 90.296 Q 433.602 103.253 433.602 111.203 Q 433.602 117.278 434.864 119.479 A 3.908 3.908 0 0 0 435.002 119.703 Q 436.353 121.729 440.31 121.8 A 16.217 16.217 0 0 0 440.602 121.803 Q 443.002 121.803 445.002 121.603 A 106.275 106.275 0 0 1 445.81 121.525 Q 446.823 121.431 447.335 121.409 A 6.392 6.392 0 0 1 447.602 121.403 L 448.202 122.203 L 446.602 130.203 A 84.644 84.644 0 0 1 445.357 130.192 Q 443.531 130.164 440.366 130.068 A 864.66 864.66 0 0 1 438.302 130.003 Q 432.202 129.803 425.602 129.803 L 405.602 130.003 L 407.202 122.003 Q 412.402 122.003 414.902 120.703 A 6.494 6.494 0 0 0 417.584 118.053 A 9.649 9.649 0 0 0 418.402 116.103 A 17.72 17.72 0 0 0 418.908 113.852 Q 419.292 111.513 419.377 108.188 A 77.275 77.275 0 0 0 419.402 106.203 L 419.402 83.803 L 396.402 83.603 A 53.436 53.436 0 0 0 394.686 83.636 Q 391.909 83.728 386.77 84.07 A 698.532 698.532 0 0 0 383.402 84.303 Q 375.361 84.877 371.628 85.115 A 299.035 299.035 0 0 1 370.202 85.203 L 369.602 111.203 A 46.011 46.011 0 0 0 369.679 113.972 Q 369.924 118.023 370.953 119.724 A 4.071 4.071 0 0 0 371.002 119.803 A 4.152 4.152 0 0 0 372.919 121.377 Q 373.68 121.707 374.663 121.863 A 12.417 12.417 0 0 0 376.602 122.003 Q 379.002 122.003 381.002 121.803 Q 382.722 121.631 383.406 121.459 A 2.725 2.725 0 0 0 383.602 121.403 L 384.002 122.203 L 382.602 130.203 A 45.283 45.283 0 0 1 381.693 130.192 Q 380.356 130.164 378.024 130.068 A 477.206 477.206 0 0 1 376.502 130.003 Q 372.002 129.803 367.002 129.803 Q 359.602 129.803 350.802 130.403 Q 342.242 130.986 341.819 131.57 A 0.122 0.122 0 0 0 341.802 131.603 Z M 862.202 29.003 L 862.602 30.203 L 862.002 36.803 A 52.044 52.044 0 0 0 859.108 36.971 Q 856.062 37.24 854.076 37.863 A 10.686 10.686 0 0 0 852.902 38.303 Q 850.002 39.603 850.002 42.003 A 3.767 3.767 0 0 0 850.208 43.093 Q 850.943 45.424 854.302 50.503 A 389.306 389.306 0 0 0 856.746 54.146 Q 859.569 58.31 863.641 64.149 A 1844.324 1844.324 0 0 0 867.602 69.803 L 873.802 62.003 A 34.198 34.198 0 0 1 874.293 61.337 Q 875.504 59.728 878.563 55.88 A 985.473 985.473 0 0 1 879.102 55.203 Q 883.206 50.049 885.397 46.626 A 46.626 46.626 0 0 0 885.602 46.303 A 35.921 35.921 0 0 0 886.459 44.872 Q 887.802 42.496 887.802 41.403 A 2.911 2.911 0 0 0 886.616 39.004 A 4.974 4.974 0 0 0 885.602 38.403 Q 883.78 37.574 880.176 37.158 A 49.593 49.593 0 0 0 878.602 37.003 L 878.202 36.403 L 879.202 29.203 A 14.031 14.031 0 0 1 879.777 29.22 Q 881.15 29.282 885.035 29.565 A 995.705 995.705 0 0 1 886.902 29.703 A 219.227 219.227 0 0 0 891.632 30.007 Q 893.479 30.105 895.122 30.154 A 104.004 104.004 0 0 0 898.202 30.203 Q 903.602 30.203 908.402 30.003 Q 913.202 29.803 914.802 29.603 L 915.402 30.803 L 914.402 37.603 A 44.408 44.408 0 0 0 909.83 38.994 Q 905.827 40.468 903.202 42.503 A 32.184 32.184 0 0 0 901.015 44.384 Q 897.452 47.703 892.202 54.003 L 873.002 77.603 L 895.802 108.803 A 44.633 44.633 0 0 0 899.622 113.328 Q 901.85 115.62 904.186 117.245 A 25.492 25.492 0 0 0 905.502 118.103 A 24.286 24.286 0 0 0 911.768 120.745 Q 914.469 121.482 917.585 121.767 A 40.679 40.679 0 0 0 918.002 121.803 L 918.402 122.403 L 917.202 130.203 Q 915.397 130.203 911.033 130.068 A 824.297 824.297 0 0 1 909.002 130.003 Q 903.002 129.803 896.602 129.803 A 156.055 156.055 0 0 0 893.59 129.834 Q 889.432 129.914 883.863 130.203 A 492.256 492.256 0 0 0 882.002 130.303 A 2890.594 2890.594 0 0 0 878.361 130.507 Q 873.789 130.767 871.435 130.919 A 190.913 190.913 0 0 0 870.202 131.003 L 869.602 129.803 L 870.202 122.803 Q 875.214 122.479 878.069 121.698 A 13.604 13.604 0 0 0 879.302 121.303 Q 882.119 120.234 882.2 117.75 A 4.549 4.549 0 0 0 882.202 117.603 A 4.074 4.074 0 0 0 882.086 116.675 Q 881.879 115.792 881.302 114.703 A 21.605 21.605 0 0 0 880.131 112.758 A 27.911 27.911 0 0 0 879.002 111.203 L 862.002 87.403 L 848.002 105.003 Q 843.95 110.16 842.273 112.772 A 26.71 26.71 0 0 0 842.002 113.203 A 14.414 14.414 0 0 0 841.158 114.769 Q 840.78 115.598 840.591 116.357 A 5.98 5.98 0 0 0 840.402 117.803 Q 840.402 121.067 846.396 122.067 A 30.839 30.839 0 0 0 849.402 122.403 L 850.002 123.203 L 848.802 130.803 Q 846.802 130.603 840.302 130.203 Q 834.945 129.873 831.421 129.815 A 86.525 86.525 0 0 0 830.002 129.803 A 262.574 262.574 0 0 0 822.262 129.913 A 226.988 226.988 0 0 0 819.702 130.003 Q 815.461 130.176 813.543 130.349 A 26.461 26.461 0 0 0 813.002 130.403 L 812.402 129.203 L 813.402 121.803 A 29.803 29.803 0 0 0 821.825 117.877 A 37.764 37.764 0 0 0 825.602 115.003 Q 831.274 110.113 839.049 101.017 A 255.707 255.707 0 0 0 839.402 100.603 L 857.002 79.603 L 836.402 50.803 Q 832.202 45.003 827.002 41.903 A 28.648 28.648 0 0 0 820.657 39.14 A 39.667 39.667 0 0 0 814.402 37.803 L 814.002 37.003 L 815.002 29.803 Q 817.135 29.803 822.299 29.937 A 1155.058 1155.058 0 0 1 824.702 30.003 Q 831.802 30.203 839.202 30.203 A 206.987 206.987 0 0 0 849.274 29.966 A 175.753 175.753 0 0 0 853.602 29.703 A 1111.078 1111.078 0 0 0 855.976 29.526 Q 860.74 29.165 862.202 29.003 Z M 258.202 130.603 L 259.602 122.603 Q 265.756 122.141 269.129 121.206 A 14.466 14.466 0 0 0 270.902 120.603 A 7.696 7.696 0 0 0 273.241 119.1 A 6.793 6.793 0 0 0 275.102 115.903 Q 275.987 112.657 276.002 104.674 A 147.27 147.27 0 0 0 276.002 104.403 L 276.002 38.203 Q 265.098 38.549 260.335 39.344 A 23.614 23.614 0 0 0 259.002 39.603 A 10.545 10.545 0 0 0 255.513 41.046 A 9.339 9.339 0 0 0 252.502 44.303 Q 250.474 47.876 249.099 57.512 A 130.183 130.183 0 0 0 249.002 58.203 L 239.602 58.803 Q 239.929 56.679 240.589 50.351 A 959.117 959.117 0 0 0 240.902 47.303 Q 241.802 38.403 242.002 29.803 L 243.602 28.403 L 257.802 30.003 L 308.802 30.003 L 323.402 28.403 L 325.002 29.803 Q 325.202 38.603 326.002 47.203 A 686.746 686.746 0 0 0 326.288 50.21 Q 326.877 56.253 327.202 58.203 L 318.002 58.803 A 117.937 117.937 0 0 0 317.171 54.009 Q 315.877 47.428 314.302 44.503 A 10.202 10.202 0 0 0 311.988 41.564 A 9.205 9.205 0 0 0 308.102 39.603 Q 304.738 38.782 296.324 38.365 A 262.424 262.424 0 0 0 292.402 38.203 Q 291.481 47.043 290.73 66.654 A 1419.628 1419.628 0 0 0 290.602 70.103 Q 289.802 92.403 289.802 111.203 Q 289.802 116.212 291.443 118.685 A 5.827 5.827 0 0 0 292.002 119.403 A 6.553 6.553 0 0 0 294.544 121.074 Q 296.448 121.803 299.202 121.803 Q 301.621 121.803 303.453 121.712 A 44.318 44.318 0 0 0 305.102 121.603 Q 307.254 121.415 307.918 121.403 A 4.669 4.669 0 0 1 308.002 121.403 L 308.602 122.003 L 307.202 130.403 A 89.9 89.9 0 0 1 305.626 130.386 Q 303.325 130.345 299.375 130.201 A 878.489 878.489 0 0 1 296.802 130.103 A 375.888 375.888 0 0 0 282.227 129.803 A 346.25 346.25 0 0 0 282.002 129.803 Q 274.802 129.803 267.802 130.103 A 880.738 880.738 0 0 0 264.762 130.238 Q 261.264 130.4 259.277 130.528 A 86.901 86.901 0 0 0 258.202 130.603 Z M 199.202 117.603 L 182.402 88.203 L 169.402 88.203 L 169.002 109.603 Q 169.002 114.064 169.475 116.573 A 11.222 11.222 0 0 0 169.802 117.903 A 5.657 5.657 0 0 0 170.634 119.567 A 4.653 4.653 0 0 0 172.902 121.203 A 10.973 10.973 0 0 0 174.258 121.565 Q 176.602 122.053 180.802 122.203 L 181.202 122.803 L 179.602 130.403 A 46.451 46.451 0 0 0 178.211 130.312 Q 176.27 130.21 173.017 130.141 A 413.635 413.635 0 0 0 170.902 130.103 Q 164.602 130.003 158.202 130.003 Q 152.002 130.003 147.402 130.203 Q 143.421 130.376 141.687 130.549 A 19.802 19.802 0 0 0 141.202 130.603 L 142.602 122.403 A 42.615 42.615 0 0 0 145.893 121.836 Q 149.057 121.152 150.914 120.101 A 6.878 6.878 0 0 0 152.402 119.003 A 6.399 6.399 0 0 0 153.744 116.916 Q 154.566 114.949 154.75 111.862 A 31.44 31.44 0 0 0 154.802 110.003 L 155.002 46.203 A 30.33 30.33 0 0 0 154.936 44.123 Q 154.797 42.11 154.365 40.854 A 4.572 4.572 0 0 0 153.802 39.703 Q 152.634 38.047 149.38 38.004 A 13.254 13.254 0 0 0 149.202 38.003 L 143.602 38.203 L 143.002 37.403 L 144.202 29.803 A 70.499 70.499 0 0 1 145.337 29.814 Q 147.004 29.841 149.908 29.937 A 735.35 735.35 0 0 1 151.802 30.003 Q 157.402 30.203 163.002 30.203 A 254.53 254.53 0 0 0 170.565 30.085 A 309.054 309.054 0 0 0 175.402 29.903 A 633.67 633.67 0 0 1 178.265 29.778 Q 182.565 29.603 184.402 29.603 A 63.354 63.354 0 0 1 194.28 30.324 Q 203.621 31.801 209.802 36.303 Q 219.002 43.003 219.002 54.803 A 26.326 26.326 0 0 1 213.921 70.312 A 33.38 33.38 0 0 1 212.802 71.803 A 39.486 39.486 0 0 1 204.245 79.692 A 54.893 54.893 0 0 1 195.402 84.603 L 212.402 110.203 A 60.975 60.975 0 0 0 215.363 114.292 Q 218.47 118.206 221.401 120.263 A 17.787 17.787 0 0 0 221.602 120.403 A 17.098 17.098 0 0 0 228.679 123.138 A 22.67 22.67 0 0 0 232.202 123.403 L 233.002 124.403 L 232.002 130.603 L 216.602 132.203 Q 212.202 132.203 207.602 128.303 Q 203.002 124.403 199.202 117.603 Z M 37.881 129.598 A 57.298 57.298 0 0 0 55.402 132.203 Q 74.002 132.203 89.302 122.903 Q 104.602 113.603 113.502 97.403 A 71.015 71.015 0 0 0 117.396 89.09 A 74.728 74.728 0 0 0 122.402 61.603 A 81.908 81.908 0 0 0 121.767 51.268 A 64.855 64.855 0 0 0 115.202 29.603 Q 108.002 15.603 95.202 7.803 A 51.666 51.666 0 0 0 82.822 2.335 A 60.125 60.125 0 0 0 65.802 0.003 Q 47.602 0.003 32.502 9.303 Q 17.402 18.603 8.702 34.703 Q 0.002 50.803 0.002 70.403 A 84.433 84.433 0 0 0 0.619 80.746 A 66.988 66.988 0 0 0 7.002 102.503 A 62.526 62.526 0 0 0 7.671 103.811 A 52.293 52.293 0 0 0 26.602 124.403 A 50.561 50.561 0 0 0 37.881 129.598 Z M 586.802 131.603 L 587.802 123.203 Q 595.002 122.003 597.602 119.203 A 8.186 8.186 0 0 0 599.212 116.531 Q 600.136 114.124 600.198 110.522 A 30.431 30.431 0 0 0 600.202 110.003 L 600.402 46.403 A 32.726 32.726 0 0 0 600.336 44.24 Q 600.123 41.041 599.223 39.732 A 3.037 3.037 0 0 0 599.202 39.703 Q 598.034 38.047 594.78 38.004 A 13.254 13.254 0 0 0 594.602 38.003 A 28.898 28.898 0 0 0 592.222 38.097 A 24.504 24.504 0 0 0 591.202 38.203 A 55.409 55.409 0 0 1 590.507 38.285 Q 589.537 38.394 589.072 38.402 A 4.122 4.122 0 0 1 589.002 38.403 L 588.602 37.403 L 589.802 29.803 A 68.62 68.62 0 0 1 590.964 29.814 Q 592.588 29.842 595.323 29.938 A 628.32 628.32 0 0 1 597.102 30.003 Q 602.402 30.203 607.802 30.203 A 374.924 374.924 0 0 0 622.365 29.912 A 407.128 407.128 0 0 0 622.602 29.903 A 830.282 830.282 0 0 1 625.901 29.778 Q 630.858 29.603 633.002 29.603 A 74.996 74.996 0 0 1 647.61 30.963 A 57.648 57.648 0 0 1 661.202 35.403 Q 673.402 41.203 680.102 51.703 A 42.696 42.696 0 0 1 686.479 70.219 A 54.087 54.087 0 0 1 686.802 76.203 A 55.808 55.808 0 0 1 683.257 96.235 A 52.43 52.43 0 0 1 679.302 104.403 Q 671.802 117.003 658.802 124.303 A 57.581 57.581 0 0 1 631.017 131.595 A 67.819 67.819 0 0 1 630.002 131.603 A 48.923 48.923 0 0 0 628.611 131.413 Q 625.674 131.049 619.502 130.503 A 219.048 219.048 0 0 0 613.956 130.078 Q 611.772 129.94 609.833 129.871 A 102.744 102.744 0 0 0 606.202 129.803 Q 601.002 129.803 594.802 130.503 A 312.34 312.34 0 0 0 592.3 130.794 Q 589.167 131.174 587.609 131.446 A 18.377 18.377 0 0 0 586.802 131.603 Z M 499.427 129.909 A 52.51 52.51 0 0 0 513.002 131.603 A 64.745 64.745 0 0 0 514.916 131.574 A 54.444 54.444 0 0 0 540.902 124.403 Q 553.402 117.203 560.502 104.703 A 52.903 52.903 0 0 0 564.829 94.892 A 58.859 58.859 0 0 0 567.602 76.603 A 63.471 63.471 0 0 0 566.917 67.116 A 48.959 48.959 0 0 0 561.802 51.303 Q 556.002 40.403 545.402 34.403 A 44.562 44.562 0 0 0 534.572 30.046 A 53.957 53.957 0 0 0 521.002 28.403 A 63.675 63.675 0 0 0 518.645 28.446 A 53.456 53.456 0 0 0 493.502 35.503 Q 481.202 42.603 474.102 55.103 A 52.903 52.903 0 0 0 469.775 64.913 A 58.859 58.859 0 0 0 467.002 83.203 A 65.128 65.128 0 0 0 467.616 92.286 A 50.474 50.474 0 0 0 472.702 108.603 Q 478.402 119.603 488.902 125.603 A 43.928 43.928 0 0 0 499.427 129.909 Z M 735.627 129.909 A 52.51 52.51 0 0 0 749.202 131.603 A 64.745 64.745 0 0 0 751.116 131.574 A 54.444 54.444 0 0 0 777.102 124.403 Q 789.602 117.203 796.702 104.703 A 52.903 52.903 0 0 0 801.029 94.892 A 58.859 58.859 0 0 0 803.802 76.603 A 63.471 63.471 0 0 0 803.117 67.116 A 48.959 48.959 0 0 0 798.002 51.303 Q 792.202 40.403 781.602 34.403 A 44.562 44.562 0 0 0 770.772 30.046 A 53.957 53.957 0 0 0 757.202 28.403 A 63.675 63.675 0 0 0 754.845 28.446 A 53.456 53.456 0 0 0 729.702 35.503 Q 717.402 42.603 710.302 55.103 A 52.903 52.903 0 0 0 705.975 64.913 A 58.859 58.859 0 0 0 703.202 83.203 A 65.128 65.128 0 0 0 703.816 92.286 A 50.474 50.474 0 0 0 708.902 108.603 Q 714.602 119.603 725.102 125.603 A 43.928 43.928 0 0 0 735.627 129.909 Z M 61.602 122.003 A 40.903 40.903 0 0 0 76.258 119.424 A 38.001 38.001 0 0 0 84.002 115.403 A 42.189 42.189 0 0 0 97.395 100.585 A 51.934 51.934 0 0 0 99.202 97.003 A 58.935 58.935 0 0 0 103.905 80.488 A 76.228 76.228 0 0 0 104.602 70.003 A 84.837 84.837 0 0 0 103.197 54.213 A 65.153 65.153 0 0 0 98.802 39.903 A 54.205 54.205 0 0 0 91.497 27.75 A 44.964 44.964 0 0 0 82.702 19.403 A 39.455 39.455 0 0 0 59.628 12.007 A 48.137 48.137 0 0 0 59.002 12.003 A 38.33 38.33 0 0 0 44.152 14.845 A 36.562 36.562 0 0 0 37.302 18.603 Q 27.802 25.203 22.502 37.003 A 59.584 59.584 0 0 0 17.947 53.081 A 77.273 77.273 0 0 0 17.202 64.003 Q 17.202 81.003 22.802 94.103 Q 28.402 107.203 38.502 114.603 Q 48.602 122.003 61.602 122.003 Z M 517.802 122.003 A 32.872 32.872 0 0 0 529.458 120.011 A 29.061 29.061 0 0 0 541.402 111.503 A 36.036 36.036 0 0 0 549.001 96.258 Q 550.314 90.829 550.397 84.456 A 66.3 66.3 0 0 0 550.402 83.603 A 68.744 68.744 0 0 0 549.457 71.931 A 50.997 50.997 0 0 0 546.102 60.403 A 38.966 38.966 0 0 0 540.95 51.613 A 31.783 31.783 0 0 0 533.902 45.003 A 31.058 31.058 0 0 0 518.005 39.677 A 38.453 38.453 0 0 0 515.602 39.603 A 31.349 31.349 0 0 0 504.23 41.593 A 28.085 28.085 0 0 0 492.702 50.003 A 35.727 35.727 0 0 0 485.565 64.311 Q 484.203 69.639 484.028 75.922 A 67.351 67.351 0 0 0 484.002 77.803 A 70.342 70.342 0 0 0 484.925 89.474 A 51.922 51.922 0 0 0 488.202 101.003 A 39.977 39.977 0 0 0 493.092 109.634 A 32.166 32.166 0 0 0 500.102 116.503 A 29.586 29.586 0 0 0 517.335 121.999 A 36.073 36.073 0 0 0 517.802 122.003 Z M 754.002 122.003 A 32.872 32.872 0 0 0 765.658 120.011 A 29.061 29.061 0 0 0 777.602 111.503 A 36.036 36.036 0 0 0 785.201 96.258 Q 786.514 90.829 786.597 84.456 A 66.3 66.3 0 0 0 786.602 83.603 A 68.744 68.744 0 0 0 785.657 71.931 A 50.997 50.997 0 0 0 782.302 60.403 A 38.966 38.966 0 0 0 777.15 51.613 A 31.783 31.783 0 0 0 770.102 45.003 A 31.058 31.058 0 0 0 754.205 39.677 A 38.453 38.453 0 0 0 751.802 39.603 A 31.349 31.349 0 0 0 740.43 41.593 A 28.085 28.085 0 0 0 728.902 50.003 A 35.727 35.727 0 0 0 721.765 64.311 Q 720.403 69.639 720.228 75.922 A 67.351 67.351 0 0 0 720.202 77.803 A 70.342 70.342 0 0 0 721.125 89.474 A 51.922 51.922 0 0 0 724.402 101.003 A 39.977 39.977 0 0 0 729.292 109.634 A 32.166 32.166 0 0 0 736.302 116.503 A 29.586 29.586 0 0 0 753.535 121.999 A 36.073 36.073 0 0 0 754.002 122.003 Z M 622.402 39.003 A 23.005 23.005 0 0 0 621.017 39.041 Q 618.992 39.164 618.141 39.678 A 2.036 2.036 0 0 0 618.102 39.703 A 2.251 2.251 0 0 0 617.345 40.539 Q 616.919 41.313 616.802 42.603 Q 614.402 98.803 614.402 108.603 A 29.353 29.353 0 0 0 614.551 111.661 Q 614.89 114.886 616.002 116.903 Q 617.602 119.803 621.602 120.903 A 23.523 23.523 0 0 0 624.312 121.459 Q 627.918 122.003 633.402 122.003 A 41.169 41.169 0 0 0 644.755 120.519 A 30.361 30.361 0 0 0 659.702 111.003 A 36.445 36.445 0 0 0 666.964 97.349 Q 668.573 91.932 669.025 85.444 A 75.384 75.384 0 0 0 669.202 80.203 Q 669.202 60.003 657.202 49.503 A 38.622 38.622 0 0 0 643.579 41.966 Q 637.772 40.067 630.714 39.385 A 86.464 86.464 0 0 0 622.402 39.003 Z M 169.802 77.803 L 186.002 79.403 Q 189.802 77.803 192.702 76.303 A 11.153 11.153 0 0 0 194.583 75.043 Q 196.383 73.582 198.417 71.021 A 46.551 46.551 0 0 0 199.202 70.003 A 17.304 17.304 0 0 0 202.158 63.529 Q 202.742 61.071 202.796 58.201 A 31.397 31.397 0 0 0 202.802 57.603 A 18.141 18.141 0 0 0 200.215 47.687 Q 195.652 40.492 183.042 38.755 A 65.057 65.057 0 0 0 174.202 38.203 A 5.757 5.757 0 0 0 173.465 38.246 Q 172.635 38.354 172.183 38.726 A 1.456 1.456 0 0 0 172.002 38.903 Q 171.404 39.6 171.402 41.786 A 15.59 15.59 0 0 0 171.402 41.803 Q 169.802 66.203 169.802 77.803 Z" vector-effect="non-scaling-stroke"/></g></svg>